<svg width="47" height="46" viewBox="0 0 47 46" fill="none" xmlns="http://www.w3.org/2000/svg">
<path d="M13.6424 0C6.12922 0 0 5.99881 0 13.3522V32.6478C0 40.0013 6.12922 46 13.6424 46H33.3576C40.8709 46 47 40.0013 47 32.6478V13.3522C47 5.99881 40.8709 0 33.3576 0H13.6424ZM13.6424 3.53846H33.3576C38.9149 3.53846 43.3846 7.90624 43.3846 13.3522V32.6478C43.3846 38.0869 38.9218 42.4615 33.3576 42.4615H13.6424C8.08519 42.4615 3.61538 38.0937 3.61538 32.6478V13.3522C3.61538 7.91316 8.07811 3.53846 13.6424 3.53846ZM37.0576 7.07691C35.5608 7.07691 34.3462 8.26563 34.3462 9.73076C34.3462 11.1959 35.5608 12.3846 37.0576 12.3846C38.5547 12.3846 39.7692 11.1959 39.7692 9.73076C39.7692 8.26563 38.5547 7.07691 37.0576 7.07691ZM23.5 10.6154C16.5305 10.6154 10.8462 16.1788 10.8462 23C10.8462 29.8213 16.5305 35.3846 23.5 35.3846C30.4695 35.3846 36.1538 29.8213 36.1538 23C36.1538 16.1788 30.4695 10.6154 23.5 10.6154ZM23.5 14.1538C28.5135 14.1538 32.5384 18.0932 32.5384 23C32.5384 27.9068 28.5135 31.8461 23.5 31.8461C18.4865 31.8461 14.4615 27.9068 14.4615 23C14.4615 18.0932 18.4865 14.1538 23.5 14.1538Z" fill="url(#paint0_radial)"/>
<defs>
<radialGradient id="paint0_radial" cx="0" cy="0" r="1" gradientUnits="userSpaceOnUse" gradientTransform="translate(23.2557 95.4811) rotate(-91.4541) scale(295.719 302.14)">
<stop stop-color="#FF0000"/>
<stop offset="1" stop-color="#D56600" stop-opacity="0"/>
</radialGradient>
</defs>
</svg>
