<svg width="41" height="38" viewBox="0 0 41 38" fill="none" xmlns="http://www.w3.org/2000/svg">
<g clip-path="url(#clip0)">
<path fill-rule="evenodd" clip-rule="evenodd" d="M9.22573 37.166H0.649078V14.0728H9.22573V37.166Z" fill="#274287"/>
<path fill-rule="evenodd" clip-rule="evenodd" d="M4.9119 8.88631H4.86319C2.30372 8.88631 0.649078 7.18133 0.649078 5.05057C0.649078 2.87472 2.35412 1.21747 4.96213 1.21747C7.57018 1.21747 9.17624 2.87472 9.22573 5.05057C9.22573 7.18133 7.57018 8.88631 4.9119 8.88631Z" fill="#274287"/>
<path fill-rule="evenodd" clip-rule="evenodd" d="M40.6731 37.1655H32.2452V25.0943C32.2452 22.0623 31.0256 19.9933 27.9747 19.9933C25.6462 19.9933 24.2593 21.3881 23.6502 22.7353C23.4273 23.2181 23.3726 23.8908 23.3726 24.5651V37.166H14.9435C14.9435 37.166 15.0546 16.7204 14.9435 14.6032H23.3726V17.7991C24.4912 16.2628 26.4947 14.0728 30.9695 14.0728C36.5155 14.0728 40.6734 17.2983 40.6734 24.2286L40.6731 37.1655Z" fill="#274287"/>
</g>
<defs>
<clipPath id="clip0">
<rect width="40.0244" height="36.9105" fill="white" transform="translate(0.649078 0.290588)"/>
</clipPath>
</defs>
</svg>
