<svg width="38" height="33" viewBox="0 0 38 33" fill="none" xmlns="http://www.w3.org/2000/svg">
<g clip-path="url(#clip0)">
<path fill-rule="evenodd" clip-rule="evenodd" d="M18.7382 8.61956L18.8193 9.85533L17.4666 9.70402C12.5428 9.12398 8.2412 7.15683 4.58891 3.85305L2.80335 2.21378L2.34343 3.42432C1.36948 6.12284 1.99173 8.97264 4.02077 10.8893C5.10294 11.9486 4.85945 12.0999 2.99273 11.4694C2.34343 11.2676 1.77529 11.1163 1.72118 11.192C1.53181 11.3685 2.1811 13.6635 2.69513 14.5714C3.39854 15.8324 4.8324 17.0682 6.40152 17.7995L7.72717 18.3796L6.15806 18.4048C4.64303 18.4048 4.58891 18.43 4.75124 18.9596C5.29231 20.5989 7.42959 22.3391 9.81034 23.0957L11.4877 23.6253L10.0268 24.4323C7.86245 25.5924 5.31938 26.2481 2.77629 26.2986C1.55886 26.3238 0.557861 26.4247 0.557861 26.5003C0.557861 26.7525 3.85845 28.1649 5.77929 28.7196C11.5418 30.3588 18.3865 29.6527 23.5267 26.8534C27.179 24.861 30.8313 20.9015 32.5358 17.0682C33.4557 15.0254 34.3753 11.2929 34.3753 9.50225C34.3753 8.34216 34.4566 8.19083 35.9715 6.80375C36.8644 5.99672 37.7031 5.11403 37.8652 4.86185C38.136 4.38266 38.1089 4.38266 36.729 4.81139C34.4295 5.56799 34.1049 5.46711 35.2411 4.33222C36.0798 3.52519 37.0807 2.06246 37.0807 1.63372C37.0807 1.55807 36.6749 1.68416 36.2152 1.91114C35.7281 2.16334 34.6461 2.54163 33.8344 2.76861L32.3733 3.19735L31.0479 2.3651C30.3172 1.91114 29.2893 1.40675 28.7482 1.25543C27.3684 0.902354 25.2582 0.952796 24.0137 1.35631C20.632 2.4912 18.4947 5.41668 18.7382 8.61956Z" fill="#7BA0FF"/>
</g>
<defs>
<clipPath id="clip0">
<rect width="37.4422" height="31.9891" fill="white" transform="translate(0.557861 0.212006)"/>
</clipPath>
</defs>
</svg>
