<svg id="svg" version="1.1" xmlns="http://www.w3.org/2000/svg" xmlns:xlink="http://www.w3.org/1999/xlink" width="400" height="253.20197044334975" viewBox="0, 0, 400,253.20197044334975"><g id="svgg"><path id="path0" d="M238.683 0.304 C 238.516 0.471,238.379 0.729,238.379 0.876 C 238.379 1.024,238.151 1.287,237.872 1.461 C 237.593 1.635,237.365 1.891,237.365 2.029 C 237.365 2.167,237.166 2.494,236.922 2.756 C 236.678 3.019,236.251 3.536,235.972 3.906 C 235.693 4.277,235.209 4.877,234.896 5.240 C 234.582 5.603,234.326 5.981,234.326 6.080 C 234.326 6.178,234.069 6.556,233.756 6.920 C 233.442 7.283,232.958 7.880,232.679 8.248 C 232.400 8.615,231.944 9.187,231.666 9.518 C 231.387 9.850,230.874 10.534,230.526 11.039 C 230.177 11.544,229.693 12.174,229.449 12.439 C 229.205 12.703,229.006 13.027,229.006 13.159 C 229.006 13.290,228.805 13.546,228.559 13.729 C 228.124 14.052,227.852 14.401,226.628 16.213 C 226.298 16.700,225.730 17.419,225.364 17.809 C 224.998 18.199,224.699 18.600,224.699 18.698 C 224.699 18.797,224.443 19.163,224.129 19.511 C 223.143 20.608,220.646 23.986,220.646 24.223 C 220.646 24.348,220.418 24.593,220.139 24.767 C 219.861 24.941,219.633 25.253,219.633 25.461 C 219.633 25.669,219.532 25.839,219.409 25.839 C 219.206 25.839,216.339 29.519,216.339 29.781 C 216.339 29.842,216.140 30.107,215.896 30.369 C 215.652 30.631,215.225 31.148,214.946 31.518 C 214.668 31.887,214.126 32.553,213.743 32.997 C 213.360 33.442,213.046 33.923,213.046 34.068 C 213.046 34.212,212.818 34.473,212.540 34.647 C 212.261 34.821,212.033 35.129,212.033 35.332 C 212.033 35.535,211.805 35.823,211.526 35.972 C 211.248 36.121,211.020 36.369,211.020 36.524 C 211.020 36.678,210.507 37.405,209.880 38.138 C 209.253 38.872,208.740 39.559,208.740 39.664 C 208.740 39.770,208.571 40.037,208.365 40.257 C 207.454 41.231,206.713 42.138,206.713 42.279 C 206.713 42.363,206.449 42.739,206.126 43.114 C 205.804 43.488,205.319 44.107,205.050 44.489 C 204.780 44.870,204.303 45.452,203.990 45.782 C 203.676 46.112,203.420 46.433,203.420 46.495 C 203.420 46.558,202.565 47.735,201.520 49.112 C 200.475 50.489,199.620 51.686,199.620 51.772 C 199.620 51.857,199.301 52.242,198.911 52.626 C 198.522 53.010,197.754 53.952,197.205 54.718 C 196.657 55.484,196.007 56.332,195.761 56.603 C 195.515 56.873,195.313 57.216,195.313 57.365 C 195.313 57.514,195.085 57.779,194.807 57.953 C 194.528 58.127,194.300 58.394,194.300 58.548 C 194.300 58.701,194.074 59.071,193.797 59.369 C 192.720 60.530,192.021 61.442,192.021 61.687 C 192.020 61.828,191.792 62.085,191.514 62.259 C 191.235 62.433,191.007 62.708,191.007 62.869 C 191.007 63.030,190.836 63.343,190.627 63.563 C 189.787 64.450,187.714 67.091,187.714 67.274 C 187.714 67.381,187.540 67.649,187.328 67.870 C 186.965 68.248,186.414 68.952,184.927 70.939 C 184.579 71.405,184.094 71.961,183.851 72.175 C 183.607 72.389,183.407 72.705,183.407 72.878 C 183.407 73.051,183.179 73.315,182.901 73.464 C 182.622 73.613,182.394 73.857,182.394 74.007 C 182.394 74.156,182.137 74.587,181.824 74.966 C 181.510 75.344,180.969 76.038,180.621 76.507 C 180.272 76.977,179.353 78.166,178.578 79.149 C 177.803 80.133,176.948 81.279,176.678 81.697 C 176.408 82.115,176.049 82.628,175.879 82.837 C 175.090 83.808,173.096 86.387,172.641 87.025 C 172.362 87.415,172.020 87.861,171.881 88.015 C 171.231 88.737,169.981 90.426,169.981 90.583 C 169.981 90.680,169.725 91.026,169.411 91.352 C 168.465 92.336,168.008 92.904,167.701 93.477 C 167.541 93.777,167.219 94.222,166.985 94.468 C 166.752 94.713,166.390 95.175,166.181 95.494 C 165.972 95.814,165.605 96.317,165.365 96.613 C 165.125 96.908,164.527 97.663,164.036 98.290 C 163.545 98.917,162.971 99.611,162.762 99.831 C 162.553 100.052,162.381 100.316,162.381 100.418 C 162.381 100.521,161.863 101.252,161.229 102.044 C 159.770 103.867,159.508 104.206,157.195 107.283 C 156.148 108.676,155.147 109.981,154.973 110.183 C 154.798 110.384,154.056 111.353,153.325 112.336 C 151.737 114.470,151.406 114.901,150.591 115.896 C 150.249 116.314,149.969 116.725,149.969 116.809 C 149.968 116.893,149.712 117.253,149.398 117.608 C 149.085 117.963,148.600 118.549,148.322 118.909 C 148.043 119.269,147.559 119.856,147.245 120.213 C 146.932 120.570,146.675 120.954,146.675 121.065 C 146.675 121.250,146.018 122.073,145.024 123.137 C 144.817 123.358,144.649 123.631,144.649 123.744 C 144.649 123.857,144.412 124.189,144.122 124.483 C 143.833 124.776,143.261 125.472,142.852 126.029 C 141.562 127.785,141.241 128.201,140.785 128.705 C 140.541 128.975,140.342 129.289,140.342 129.403 C 140.342 129.518,140.085 129.849,139.772 130.139 C 139.459 130.429,138.917 131.082,138.569 131.589 C 138.220 132.097,136.596 134.265,134.959 136.409 C 133.322 138.552,131.982 140.401,131.982 140.516 C 131.982 140.632,131.754 140.869,131.476 141.043 C 131.197 141.217,130.969 141.473,130.969 141.611 C 130.969 141.749,130.769 142.076,130.526 142.339 C 129.525 143.415,128.689 144.520,128.689 144.769 C 128.689 144.914,128.461 145.176,128.182 145.350 C 127.904 145.524,127.676 145.779,127.676 145.917 C 127.676 146.055,127.442 146.425,127.157 146.738 C 126.126 147.873,125.967 148.079,125.647 148.702 C 125.468 149.050,125.168 149.426,124.979 149.538 C 124.790 149.649,124.636 149.963,124.636 150.234 C 124.636 150.720,124.963 150.728,143.282 150.728 L 161.928 150.728 162.471 150.051 C 162.770 149.678,164.185 147.826,165.615 145.934 C 168.852 141.653,168.941 141.538,169.787 140.532 C 170.168 140.079,170.481 139.594,170.484 139.453 C 170.486 139.312,170.716 139.055,170.994 138.881 C 171.273 138.707,171.501 138.451,171.501 138.313 C 171.501 138.175,171.734 137.806,172.019 137.492 C 173.043 136.367,173.208 136.154,173.512 135.573 C 173.791 135.038,174.022 134.749,175.186 133.481 C 175.388 133.260,175.554 132.988,175.554 132.877 C 175.554 132.765,175.811 132.418,176.124 132.106 C 176.438 131.794,176.979 131.115,177.327 130.596 C 177.676 130.077,178.160 129.468,178.404 129.241 C 178.648 129.015,178.847 128.732,178.847 128.613 C 178.847 128.494,179.594 127.465,180.507 126.326 C 181.419 125.188,183.013 123.116,184.049 121.723 C 185.085 120.329,186.083 119.018,186.267 118.809 C 186.969 118.010,188.220 116.323,188.220 116.176 C 188.220 116.092,188.434 115.809,188.695 115.548 C 188.957 115.287,189.234 114.916,189.313 114.725 C 189.423 114.455,189.545 114.491,189.849 114.883 C 190.703 115.980,191.053 116.442,191.770 117.416 C 192.180 117.973,192.746 118.661,193.028 118.945 C 193.310 119.229,193.540 119.542,193.540 119.642 C 193.540 119.741,193.718 120.022,193.935 120.266 C 194.152 120.510,194.887 121.450,195.567 122.356 C 196.247 123.262,196.981 124.202,197.199 124.446 C 197.416 124.690,197.593 124.983,197.593 125.097 C 197.593 125.211,197.850 125.542,198.163 125.832 C 198.477 126.123,199.018 126.782,199.367 127.297 C 199.715 127.812,200.199 128.450,200.443 128.715 C 200.687 128.979,200.887 129.309,200.887 129.447 C 200.887 129.585,201.115 129.840,201.393 130.014 C 201.672 130.188,201.900 130.468,201.900 130.636 C 201.900 130.803,202.110 131.089,202.366 131.271 C 202.623 131.453,202.981 131.887,203.161 132.236 C 203.485 132.859,203.645 133.066,204.675 134.199 C 204.960 134.512,205.193 134.829,205.193 134.903 C 205.193 135.064,207.675 138.334,208.077 138.701 C 208.232 138.844,208.474 139.152,208.613 139.386 C 208.752 139.621,209.720 140.929,210.763 142.294 C 211.805 143.659,213.312 145.630,214.111 146.675 C 214.910 147.720,215.743 148.779,215.961 149.028 C 216.180 149.278,216.487 149.762,216.643 150.105 L 216.927 150.728 235.633 150.728 L 254.338 150.728 254.338 150.132 C 254.338 149.804,254.082 149.238,253.768 148.875 C 253.455 148.512,252.970 147.914,252.692 147.547 C 252.413 147.180,251.928 146.589,251.615 146.234 C 251.301 145.878,251.045 145.507,251.045 145.408 C 251.045 145.248,250.668 144.768,249.405 143.319 C 249.192 143.075,249.018 142.762,249.018 142.624 C 249.018 142.486,248.790 142.230,248.512 142.056 C 248.233 141.882,248.003 141.625,248.001 141.484 C 247.997 141.256,247.259 140.285,246.121 139.012 C 245.903 138.768,245.725 138.456,245.725 138.318 C 245.725 138.179,245.497 137.924,245.218 137.750 C 244.940 137.576,244.712 137.339,244.712 137.223 C 244.712 136.920,241.853 133.249,241.617 133.249 C 241.508 133.249,241.419 133.127,241.419 132.977 C 241.419 132.683,239.415 129.991,236.497 126.363 C 235.860 125.571,235.339 124.827,235.339 124.709 C 235.339 124.591,235.139 124.310,234.896 124.083 C 234.652 123.857,234.167 123.251,233.819 122.736 C 233.471 122.222,232.929 121.563,232.616 121.273 C 232.302 120.982,232.046 120.632,232.046 120.495 C 232.046 120.358,231.880 120.065,231.677 119.844 C 230.514 118.576,230.282 118.287,230.003 117.752 C 229.834 117.428,229.542 116.992,229.355 116.783 C 228.571 115.906,227.527 114.595,226.232 112.856 C 224.788 110.919,224.570 110.640,224.129 110.166 C 223.885 109.904,223.686 109.619,223.686 109.533 C 223.686 109.447,223.372 109.014,222.989 108.571 C 222.606 108.128,222.065 107.443,221.786 107.048 C 221.233 106.264,217.651 101.557,215.833 99.225 C 215.206 98.420,214.579 97.563,214.440 97.320 C 214.197 96.897,213.875 96.486,213.046 95.540 C 212.837 95.302,212.267 94.559,211.780 93.889 C 211.292 93.219,210.693 92.485,210.450 92.257 C 210.206 92.030,210.006 91.704,210.006 91.533 C 210.006 91.362,209.852 91.131,209.663 91.020 C 208.792 90.505,208.568 89.457,209.183 88.772 C 209.861 88.016,212.540 84.445,212.540 84.297 C 212.540 84.225,212.996 83.682,213.553 83.091 C 214.110 82.499,214.566 81.923,214.566 81.811 C 214.566 81.699,214.709 81.453,214.883 81.266 C 215.583 80.511,216.846 78.801,216.846 78.607 C 216.846 78.493,217.074 78.257,217.353 78.083 C 217.631 77.909,217.859 77.641,217.859 77.488 C 217.859 77.334,218.086 76.965,218.363 76.666 C 219.439 75.506,220.139 74.593,220.139 74.348 C 220.139 74.208,220.367 73.950,220.646 73.776 C 220.925 73.602,221.153 73.328,221.153 73.167 C 221.153 73.005,221.318 72.693,221.521 72.472 C 222.512 71.392,222.837 70.990,223.282 70.293 C 223.548 69.878,223.919 69.447,224.106 69.335 C 224.293 69.224,224.446 68.971,224.446 68.774 C 224.446 68.577,224.674 68.294,224.953 68.144 C 225.231 67.995,225.459 67.751,225.459 67.602 C 225.459 67.453,225.716 67.021,226.029 66.643 C 226.343 66.264,226.884 65.574,227.232 65.110 C 227.581 64.645,228.036 64.092,228.244 63.881 C 228.452 63.670,228.737 63.295,228.877 63.049 C 229.096 62.665,232.120 58.628,232.747 57.885 C 233.055 57.519,235.627 54.128,236.225 53.300 C 236.504 52.913,236.989 52.289,237.302 51.911 C 237.616 51.534,237.872 51.161,237.872 51.083 C 237.872 51.005,238.129 50.667,238.442 50.333 C 238.756 49.998,239.240 49.420,239.519 49.048 C 239.797 48.677,240.147 48.233,240.296 48.062 C 240.444 47.891,240.783 47.410,241.049 46.992 C 241.315 46.574,241.678 46.141,241.856 46.029 C 242.033 45.918,242.179 45.665,242.179 45.468 C 242.179 45.271,242.407 44.988,242.685 44.839 C 242.964 44.689,243.192 44.406,243.192 44.209 C 243.192 44.012,243.345 43.759,243.532 43.648 C 243.719 43.536,244.087 43.103,244.349 42.685 C 244.612 42.267,244.972 41.834,245.149 41.723 C 245.327 41.611,245.472 41.359,245.472 41.162 C 245.472 40.964,245.700 40.681,245.978 40.532 C 246.257 40.383,246.485 40.132,246.485 39.974 C 246.485 39.817,246.656 39.507,246.866 39.287 C 247.075 39.066,247.646 38.372,248.134 37.745 C 248.623 37.118,249.164 36.439,249.337 36.235 C 249.510 36.031,249.766 35.665,249.905 35.422 C 250.044 35.179,250.671 34.322,251.298 33.518 C 252.230 32.323,254.575 29.261,257.324 25.649 C 257.563 25.336,258.070 24.709,258.451 24.256 C 258.832 23.803,259.145 23.347,259.147 23.243 C 259.150 23.138,259.351 22.838,259.595 22.576 C 259.839 22.314,260.266 21.798,260.545 21.430 C 260.823 21.061,261.173 20.620,261.321 20.450 C 261.470 20.279,261.809 19.797,262.075 19.379 C 262.341 18.961,262.704 18.528,262.882 18.417 C 263.059 18.305,263.205 18.090,263.205 17.939 C 263.205 17.788,263.461 17.401,263.775 17.079 C 264.802 16.025,265.157 15.588,265.469 14.990 C 265.748 14.455,265.979 14.166,267.143 12.898 C 267.345 12.678,267.511 12.406,267.511 12.294 C 267.511 12.182,267.768 11.836,268.081 11.524 C 268.395 11.212,268.936 10.532,269.284 10.013 C 269.633 9.495,270.117 8.885,270.361 8.659 C 270.605 8.432,270.804 8.149,270.804 8.029 C 270.804 7.908,271.574 6.852,272.514 5.682 C 274.699 2.963,276.631 0.373,276.631 0.163 C 276.631 -0.163,239.010 -0.023,238.683 0.304 M373.148 1.393 L 373.148 2.787 375.301 2.787 L 377.454 2.787 377.454 8.486 L 377.454 14.186 379.101 14.186 L 380.747 14.186 380.747 8.486 L 380.747 2.787 382.901 2.787 L 385.054 2.787 385.054 1.393 L 385.054 0.000 379.101 0.000 L 373.148 0.000 373.148 1.393 M386.067 7.093 L 386.067 14.186 387.714 14.186 L 389.360 14.186 389.390 10.070 C 389.416 6.557,389.458 6.139,389.679 7.220 C 389.822 7.916,390.014 8.543,390.108 8.613 C 390.201 8.683,390.420 9.535,390.595 10.507 C 390.771 11.480,391.010 12.392,391.126 12.534 C 391.243 12.676,391.378 13.078,391.426 13.426 C 391.508 14.017,391.622 14.065,393.137 14.136 C 395.010 14.224,395.091 14.153,395.332 12.225 C 395.424 11.492,395.583 10.893,395.687 10.893 C 395.790 10.893,396.021 10.038,396.200 8.993 C 396.692 6.119,396.960 6.700,396.960 10.640 L 396.960 14.186 398.480 14.186 L 400.000 14.186 400.000 7.093 L 400.000 0.000 397.634 0.000 L 395.268 0.000 394.934 1.773 C 394.749 2.749,394.519 3.547,394.422 3.547 C 394.325 3.547,394.099 4.402,393.920 5.446 C 393.522 7.772,393.117 7.876,392.682 5.763 C 392.502 4.892,392.268 4.066,392.161 3.927 C 392.054 3.787,391.825 2.932,391.652 2.027 C 391.264 -0.001,391.280 0.009,388.410 0.004 L 386.067 0.000 386.067 7.093 M57.251 26.115 C 55.928 26.229,54.446 26.436,53.958 26.575 C 53.471 26.715,52.131 26.962,50.982 27.125 C 49.832 27.288,48.892 27.499,48.892 27.594 C 48.892 27.689,48.008 27.915,46.928 28.096 C 45.849 28.278,44.680 28.570,44.332 28.745 C 43.984 28.921,43.100 29.205,42.368 29.377 C 41.636 29.549,40.981 29.781,40.912 29.892 C 40.843 30.004,40.217 30.232,39.519 30.399 C 38.822 30.566,38.252 30.805,38.252 30.931 C 38.252 31.056,38.076 31.159,37.862 31.159 C 37.237 31.159,31.806 33.708,31.412 34.186 C 31.343 34.270,30.801 34.553,30.209 34.814 C 29.617 35.075,29.132 35.363,29.132 35.453 C 29.132 35.543,28.733 35.761,28.246 35.938 C 27.758 36.114,27.359 36.351,27.359 36.464 C 27.359 36.578,27.017 36.812,26.599 36.985 C 26.181 37.159,25.839 37.393,25.839 37.506 C 25.839 37.619,25.640 37.775,25.396 37.853 C 25.152 37.932,24.650 38.253,24.280 38.567 C 23.593 39.151,22.655 39.910,21.226 41.039 C 19.325 42.541,14.748 47.293,13.173 49.401 C 12.825 49.867,12.283 50.558,11.970 50.937 C 11.656 51.315,11.400 51.751,11.400 51.905 C 11.400 52.059,11.289 52.185,11.153 52.185 C 11.017 52.185,10.717 52.550,10.487 52.996 C 10.256 53.442,9.911 53.963,9.720 54.154 C 9.529 54.345,9.373 54.599,9.373 54.718 C 9.373 54.838,9.221 55.087,9.036 55.272 C 8.635 55.674,8.333 56.215,6.862 59.179 C 6.247 60.418,5.660 61.488,5.557 61.558 C 5.455 61.628,5.169 62.312,4.921 63.078 C 4.674 63.844,4.402 64.528,4.315 64.598 C 4.229 64.668,4.000 65.237,3.807 65.864 C 3.614 66.491,3.370 67.120,3.266 67.261 C 3.162 67.402,2.939 68.086,2.769 68.781 C 2.599 69.476,2.378 70.158,2.277 70.298 C 2.056 70.602,1.598 72.624,1.372 74.288 C 1.283 74.949,1.126 75.491,1.025 75.491 C -0.225 75.491,-0.228 103.134,1.023 103.568 C 1.157 103.614,1.267 103.915,1.267 104.237 C 1.267 105.041,2.039 108.745,2.271 109.056 C 2.375 109.196,2.599 109.878,2.769 110.573 C 2.939 111.268,3.166 111.952,3.275 112.093 C 3.384 112.234,3.628 112.891,3.818 113.553 C 4.008 114.215,4.235 114.756,4.321 114.756 C 4.408 114.756,4.635 115.241,4.827 115.833 C 5.018 116.425,5.739 117.992,6.429 119.316 C 7.118 120.640,7.904 122.150,8.174 122.673 C 8.445 123.195,8.745 123.623,8.842 123.623 C 8.939 123.623,9.162 124.022,9.339 124.509 C 9.515 124.997,9.758 125.396,9.879 125.396 C 10.000 125.396,10.168 125.614,10.253 125.880 C 10.390 126.312,10.984 127.156,12.352 128.858 C 12.594 129.160,13.021 129.708,13.300 130.075 C 14.837 132.102,19.568 136.980,21.127 138.146 C 21.531 138.448,22.114 138.952,22.423 139.265 C 22.731 139.579,23.063 139.835,23.160 139.835 C 23.334 139.835,24.976 141.070,25.941 141.925 C 26.216 142.169,26.591 142.369,26.774 142.369 C 26.956 142.369,27.106 142.481,27.106 142.619 C 27.106 142.756,27.529 143.045,28.047 143.262 C 28.564 143.478,29.049 143.747,29.123 143.859 C 29.283 144.100,29.653 144.298,33.611 146.259 C 37.970 148.419,38.522 148.656,39.976 148.992 C 40.700 149.159,41.292 149.378,41.292 149.480 C 41.292 149.581,41.878 149.805,42.595 149.977 C 43.312 150.149,44.182 150.437,44.528 150.617 C 44.875 150.796,45.742 151.023,46.455 151.120 C 47.168 151.217,47.812 151.391,47.886 151.506 C 47.959 151.622,49.441 151.918,51.179 152.165 C 52.916 152.412,54.395 152.692,54.465 152.786 C 55.094 153.639,76.191 153.616,76.757 152.761 C 76.827 152.656,77.568 152.492,78.404 152.396 C 80.547 152.151,82.918 151.702,83.217 151.485 C 83.357 151.384,84.240 151.160,85.180 150.986 C 86.121 150.813,86.890 150.583,86.890 150.474 C 86.890 150.366,87.318 150.198,87.840 150.100 C 88.363 150.002,89.269 149.705,89.853 149.439 C 90.438 149.173,91.069 148.955,91.256 148.955 C 91.443 148.955,92.039 148.730,92.579 148.454 C 93.120 148.178,93.970 147.820,94.469 147.657 C 94.969 147.495,95.434 147.286,95.503 147.194 C 95.573 147.101,96.646 146.520,97.887 145.901 C 100.965 144.366,101.330 144.151,101.330 143.875 C 101.330 143.743,101.447 143.635,101.589 143.635 C 101.977 143.635,104.617 141.833,106.270 140.440 C 106.688 140.087,107.423 139.494,107.903 139.121 C 110.187 137.344,117.296 129.792,117.281 129.157 C 117.272 128.766,116.687 127.929,116.423 127.929 C 116.253 127.929,114.494 126.615,113.793 125.964 C 113.604 125.789,113.222 125.524,112.943 125.375 C 112.664 125.225,112.246 124.945,112.013 124.751 C 111.203 124.076,108.487 121.973,107.777 121.469 C 107.384 121.191,106.753 120.706,106.376 120.393 C 105.999 120.079,105.591 119.823,105.471 119.823 C 105.350 119.823,105.109 119.595,104.935 119.316 C 104.761 119.037,104.487 118.809,104.326 118.809 C 104.164 118.809,103.852 118.636,103.631 118.424 C 103.210 118.018,101.904 117.005,100.699 116.149 C 100.307 115.871,99.800 115.472,99.573 115.263 C 99.346 115.054,98.707 114.571,98.155 114.191 C 97.602 113.810,96.819 113.212,96.414 112.861 C 95.442 112.018,95.279 112.050,94.237 113.287 C 92.970 114.790,90.022 117.796,89.813 117.796 C 89.717 117.796,89.199 118.252,88.664 118.809 C 88.128 119.367,87.574 119.823,87.431 119.823 C 87.289 119.823,87.019 120.042,86.831 120.311 C 86.642 120.579,86.180 120.940,85.803 121.112 C 85.426 121.283,85.117 121.517,85.117 121.630 C 85.117 121.743,84.757 122.022,84.318 122.250 C 83.878 122.477,83.393 122.767,83.241 122.893 C 82.607 123.419,81.079 124.344,80.583 124.501 C 80.290 124.594,80.051 124.758,80.051 124.865 C 80.051 124.972,79.424 125.273,78.657 125.534 C 77.891 125.794,77.264 126.080,77.264 126.168 C 77.264 126.256,76.637 126.479,75.871 126.662 C 75.104 126.846,74.478 127.074,74.478 127.168 C 74.478 127.263,73.138 127.541,71.501 127.787 C 69.864 128.033,68.125 128.336,67.638 128.460 C 66.452 128.763,59.701 128.752,58.547 128.446 C 58.044 128.312,56.543 128.033,55.212 127.824 C 53.882 127.616,52.467 127.276,52.069 127.069 C 51.670 126.863,50.906 126.619,50.371 126.529 C 49.836 126.439,49.398 126.284,49.398 126.184 C 49.398 126.085,48.971 125.851,48.448 125.663 C 47.631 125.370,46.927 124.995,44.375 123.496 C 44.006 123.279,42.759 122.368,41.599 121.469 C 40.635 120.722,37.239 117.283,37.239 117.054 C 37.239 116.907,37.011 116.645,36.732 116.471 C 36.453 116.297,36.225 116.050,36.225 115.922 C 36.225 115.795,35.957 115.338,35.629 114.907 C 35.300 114.476,34.951 113.866,34.852 113.553 C 34.752 113.239,34.584 112.983,34.476 112.983 C 34.369 112.983,34.068 112.356,33.808 111.590 C 33.547 110.823,33.258 110.196,33.166 110.196 C 33.074 110.196,32.849 109.655,32.667 108.993 C 32.485 108.331,32.260 107.733,32.166 107.663 C 31.957 107.508,31.159 103.588,31.159 102.718 C 31.159 102.373,31.045 102.090,30.906 102.090 C 30.766 102.090,30.652 101.805,30.652 101.457 L 30.652 100.823 76.793 100.823 L 122.933 100.823 122.792 92.147 C 122.657 83.784,122.240 76.768,121.863 76.504 C 121.764 76.434,121.545 75.237,121.377 73.844 C 121.209 72.451,120.962 71.273,120.827 71.227 C 120.693 71.180,120.583 70.919,120.583 70.646 C 120.583 69.892,119.804 66.279,119.580 65.991 C 119.471 65.852,119.242 65.139,119.070 64.407 C 118.899 63.675,118.667 63.020,118.556 62.951 C 118.445 62.882,118.217 62.256,118.050 61.559 C 117.882 60.862,117.671 60.291,117.579 60.291 C 117.488 60.291,117.262 59.808,117.078 59.218 C 116.894 58.628,116.467 57.542,116.130 56.804 C 115.792 56.067,115.516 55.353,115.516 55.217 C 115.516 55.082,115.411 54.972,115.282 54.972 C 115.154 54.972,114.917 54.573,114.756 54.085 C 114.595 53.597,114.385 53.198,114.290 53.198 C 114.194 53.198,113.917 52.740,113.675 52.181 C 113.433 51.621,112.836 50.597,112.349 49.904 C 111.862 49.211,111.463 48.577,111.463 48.495 C 111.463 48.413,110.929 47.643,110.277 46.783 C 108.740 44.755,108.675 44.677,107.305 43.235 C 106.666 42.562,106.143 41.948,106.143 41.869 C 106.143 41.665,104.531 40.031,104.327 40.028 C 104.233 40.027,103.646 39.541,103.021 38.949 C 101.126 37.152,100.057 36.226,99.865 36.215 C 99.765 36.210,99.289 35.868,98.806 35.455 C 98.324 35.043,97.838 34.706,97.727 34.706 C 97.616 34.706,96.950 34.301,96.247 33.807 C 95.544 33.313,94.676 32.798,94.317 32.661 C 93.958 32.525,93.365 32.202,93.000 31.944 C 92.636 31.686,91.966 31.395,91.514 31.297 C 91.061 31.199,90.690 31.013,90.690 30.885 C 90.690 30.756,90.177 30.513,89.550 30.345 C 88.923 30.178,88.410 29.955,88.410 29.850 C 88.410 29.744,87.926 29.537,87.334 29.388 C 86.742 29.239,85.972 28.965,85.624 28.778 C 85.275 28.591,84.221 28.288,83.281 28.105 C 82.340 27.922,81.571 27.691,81.571 27.592 C 81.571 27.493,80.573 27.272,79.354 27.102 C 78.135 26.932,77.023 26.703,76.884 26.595 C 76.056 25.949,62.931 25.628,57.251 26.115 M332.236 26.131 C 330.982 26.253,329.728 26.458,329.449 26.584 C 329.170 26.711,328.002 26.951,326.852 27.118 C 325.703 27.285,324.763 27.508,324.763 27.615 C 324.763 27.721,324.221 27.888,323.559 27.985 C 322.897 28.082,321.896 28.362,321.334 28.608 C 320.772 28.854,319.717 29.198,318.990 29.373 C 318.264 29.547,317.669 29.767,317.669 29.862 C 317.669 29.957,317.162 30.185,316.543 30.368 C 315.923 30.551,315.381 30.776,315.339 30.869 C 315.297 30.962,314.351 31.488,313.236 32.039 C 312.122 32.590,311.074 33.159,310.908 33.303 C 310.742 33.447,310.191 33.851,309.682 34.199 C 308.793 34.808,307.028 36.248,305.337 37.745 C 304.252 38.705,301.710 41.718,301.710 42.044 C 301.710 42.188,301.620 42.305,301.510 42.305 C 301.269 42.305,299.430 44.995,299.430 45.348 C 299.430 45.486,299.312 45.598,299.169 45.598 C 299.025 45.598,298.804 45.855,298.678 46.168 C 298.534 46.525,298.443 43.402,298.433 37.814 L 298.417 28.889 297.847 28.750 C 297.533 28.674,290.950 28.644,283.217 28.682 L 269.158 28.752 269.158 118.429 L 269.158 208.106 284.547 208.172 L 299.937 208.237 299.937 171.756 C 299.937 147.605,300.022 135.275,300.190 135.275 C 300.329 135.275,300.443 135.388,300.443 135.524 C 300.443 135.805,301.048 136.508,303.620 139.221 C 304.601 140.256,305.488 141.102,305.593 141.102 C 305.697 141.102,306.241 141.542,306.801 142.080 C 307.361 142.618,308.126 143.217,308.501 143.410 C 308.876 143.604,309.332 143.961,309.514 144.205 C 309.696 144.449,310.010 144.649,310.211 144.649 C 310.412 144.649,310.576 144.761,310.576 144.898 C 310.576 145.036,310.947 145.327,311.400 145.545 C 312.717 146.181,313.972 146.881,314.292 147.159 C 314.721 147.532,317.677 148.893,318.493 149.093 C 318.876 149.187,319.189 149.350,319.189 149.456 C 319.189 149.562,319.731 149.796,320.393 149.975 C 321.054 150.154,321.718 150.393,321.867 150.507 C 322.015 150.621,322.756 150.844,323.513 151.004 C 324.270 151.164,325.003 151.382,325.142 151.490 C 325.473 151.746,329.169 152.502,330.088 152.502 C 330.480 152.502,330.838 152.605,330.885 152.731 C 331.213 153.622,351.203 153.675,351.868 152.787 C 351.938 152.694,353.181 152.420,354.631 152.178 C 356.081 151.936,357.392 151.637,357.545 151.514 C 357.697 151.392,358.477 151.147,359.278 150.970 C 360.079 150.793,360.735 150.562,360.735 150.457 C 360.735 150.352,361.193 150.189,361.753 150.094 C 362.313 150.000,362.913 149.781,363.085 149.608 C 363.258 149.435,363.740 149.210,364.157 149.108 C 364.574 149.006,365.627 148.588,366.498 148.179 C 367.370 147.770,368.184 147.435,368.308 147.435 C 368.432 147.435,368.593 147.279,368.667 147.088 C 368.740 146.897,369.106 146.664,369.479 146.570 C 369.853 146.476,370.518 146.155,370.956 145.857 C 372.857 144.566,373.141 144.395,373.399 144.395 C 373.548 144.395,373.734 144.229,373.812 144.025 C 373.890 143.821,374.162 143.589,374.415 143.508 C 374.920 143.348,376.521 142.171,377.336 141.361 C 377.620 141.079,377.933 140.849,378.033 140.849 C 378.132 140.849,378.666 140.421,379.219 139.899 C 379.771 139.376,380.854 138.386,381.625 137.699 C 382.396 137.012,383.027 136.360,383.027 136.251 C 383.027 136.142,383.455 135.627,383.977 135.106 C 385.230 133.859,387.584 130.911,387.586 130.587 C 387.586 130.446,387.815 130.188,388.094 130.014 C 388.372 129.840,388.600 129.528,388.600 129.320 C 388.600 129.112,388.709 128.942,388.842 128.942 C 388.975 128.942,389.284 128.515,389.529 127.992 C 389.774 127.470,390.121 126.892,390.301 126.708 C 390.480 126.524,390.627 126.275,390.627 126.156 C 390.627 126.036,390.774 125.788,390.953 125.604 C 391.133 125.420,391.478 124.847,391.720 124.330 C 391.962 123.813,392.251 123.335,392.362 123.266 C 392.473 123.197,392.716 122.680,392.903 122.115 C 393.089 121.551,393.337 121.089,393.454 121.089 C 393.571 121.089,393.667 120.978,393.667 120.842 C 393.667 120.706,393.994 119.880,394.394 119.006 C 394.794 118.131,395.202 117.046,395.301 116.593 C 395.399 116.140,395.573 115.769,395.685 115.769 C 395.798 115.769,395.970 115.342,396.068 114.820 C 396.166 114.297,396.464 113.391,396.730 112.807 C 396.996 112.222,397.213 111.624,397.213 111.478 C 397.213 111.331,397.433 110.556,397.701 109.754 C 397.969 108.952,398.330 107.441,398.502 106.396 C 398.673 105.351,398.898 104.383,399.001 104.243 C 400.162 102.671,400.160 75.583,398.999 74.731 C 398.904 74.661,398.635 73.419,398.401 71.971 C 398.166 70.523,397.871 69.212,397.745 69.058 C 397.618 68.904,397.375 68.065,397.204 67.194 C 397.034 66.324,396.808 65.611,396.702 65.611 C 396.596 65.611,396.432 65.184,396.336 64.661 C 396.241 64.139,396.017 63.483,395.840 63.205 C 395.662 62.926,395.381 62.242,395.214 61.685 C 394.782 60.237,393.175 56.817,391.881 54.592 C 391.477 53.895,390.956 52.983,390.724 52.565 C 390.492 52.147,390.221 51.748,390.120 51.678 C 390.020 51.609,389.748 51.181,389.516 50.728 C 389.284 50.275,389.011 49.905,388.909 49.905 C 388.807 49.905,388.584 49.592,388.413 49.208 C 388.242 48.825,387.711 48.056,387.234 47.498 C 386.756 46.941,386.099 46.154,385.773 45.750 C 384.776 44.513,380.385 40.025,380.172 40.025 C 380.062 40.025,379.606 39.626,379.158 39.139 C 378.710 38.651,378.202 38.252,378.028 38.252 C 377.854 38.252,377.569 38.024,377.395 37.745 C 377.221 37.467,376.964 37.234,376.823 37.228 C 376.683 37.223,376.173 36.881,375.690 36.468 C 375.208 36.056,374.667 35.719,374.487 35.719 C 374.308 35.719,374.161 35.610,374.161 35.477 C 374.161 35.345,373.733 35.035,373.211 34.790 C 372.688 34.545,372.118 34.205,371.943 34.035 C 371.768 33.865,371.397 33.653,371.119 33.565 C 370.842 33.477,370.614 33.317,370.614 33.209 C 370.614 33.101,370.158 32.863,369.601 32.679 C 369.044 32.495,368.588 32.258,368.588 32.152 C 368.588 32.046,368.018 31.770,367.321 31.539 C 366.624 31.308,366.054 31.028,366.054 30.918 C 366.054 30.808,365.541 30.575,364.915 30.399 C 364.288 30.223,363.775 30.002,363.775 29.907 C 363.775 29.812,363.176 29.584,362.445 29.400 C 361.713 29.216,360.818 28.915,360.456 28.732 C 360.094 28.549,359.040 28.259,358.113 28.089 C 357.186 27.918,356.428 27.696,356.428 27.595 C 356.428 27.494,355.431 27.268,354.212 27.093 C 352.992 26.917,351.881 26.688,351.742 26.583 C 350.896 25.945,337.339 25.631,332.236 26.131 M67.306 49.435 C 68.882 49.595,70.171 49.805,70.171 49.902 C 70.171 49.998,70.969 50.220,71.944 50.394 C 72.920 50.568,73.718 50.802,73.718 50.913 C 73.718 51.024,74.107 51.188,74.584 51.278 C 75.060 51.367,76.114 51.777,76.927 52.189 C 77.739 52.601,78.547 52.940,78.721 52.942 C 78.895 52.943,79.037 53.041,79.037 53.158 C 79.037 53.275,79.340 53.508,79.710 53.677 C 81.080 54.301,85.624 58.168,85.624 58.710 C 85.624 58.804,85.855 59.112,86.137 59.396 C 86.933 60.195,87.790 61.530,88.663 63.331 C 89.102 64.237,89.611 65.263,89.794 65.611 C 89.977 65.959,90.275 66.928,90.456 67.764 C 90.637 68.600,90.859 69.341,90.949 69.411 C 91.163 69.577,91.704 73.537,91.704 74.937 C 91.704 75.539,91.822 76.251,91.966 76.521 C 92.224 77.004,91.801 77.011,61.440 77.011 C 30.821 77.011,30.652 77.008,30.652 76.504 C 30.652 76.225,30.742 75.997,30.853 75.997 C 30.963 75.997,31.261 74.744,31.516 73.211 C 31.771 71.678,32.067 70.424,32.174 70.424 C 32.282 70.424,32.447 69.997,32.543 69.474 C 32.638 68.952,32.857 68.296,33.029 68.018 C 33.201 67.739,33.553 66.941,33.811 66.244 C 34.068 65.548,34.357 64.921,34.453 64.851 C 34.641 64.714,35.213 63.696,35.840 62.381 C 36.056 61.928,36.319 61.558,36.425 61.558 C 36.530 61.558,36.839 61.146,37.110 60.643 C 37.676 59.591,42.419 54.797,43.110 54.577 C 43.364 54.497,43.572 54.338,43.572 54.225 C 43.572 54.112,43.914 53.878,44.332 53.705 C 44.750 53.532,45.092 53.313,45.092 53.219 C 45.092 53.126,45.605 52.837,46.232 52.579 C 46.859 52.320,47.372 52.024,47.372 51.922 C 47.372 51.819,47.742 51.664,48.195 51.578 C 48.648 51.493,49.317 51.266,49.683 51.075 C 50.049 50.884,50.961 50.586,51.710 50.412 C 52.459 50.238,53.300 49.994,53.578 49.870 C 55.065 49.205,62.660 48.964,67.306 49.435 M340.771 54.131 C 340.953 54.274,341.985 54.537,343.065 54.717 C 344.145 54.896,345.028 55.117,345.028 55.208 C 345.028 55.299,345.556 55.514,346.200 55.686 C 347.642 56.072,349.730 57.040,351.754 58.260 C 352.597 58.769,353.480 59.259,353.717 59.350 C 353.954 59.441,354.148 59.633,354.148 59.777 C 354.148 59.920,354.261 60.038,354.399 60.038 C 355.049 60.038,358.608 63.149,360.534 65.400 C 362.532 67.737,364.806 71.055,365.148 72.134 C 365.247 72.448,365.426 72.704,365.545 72.704 C 365.664 72.704,365.842 73.075,365.941 73.528 C 366.040 73.980,366.391 74.942,366.721 75.665 C 367.051 76.387,367.322 77.128,367.323 77.311 C 367.324 77.494,367.483 77.949,367.678 78.322 C 369.528 81.868,369.669 99.000,367.859 100.317 C 367.763 100.386,367.529 101.070,367.340 101.837 C 367.151 102.603,366.926 103.287,366.842 103.357 C 366.757 103.426,366.474 104.110,366.214 104.877 C 365.953 105.643,365.668 106.327,365.580 106.396 C 365.493 106.466,365.022 107.292,364.535 108.233 C 364.047 109.173,363.588 109.942,363.515 109.943 C 363.443 109.943,363.158 110.370,362.883 110.893 C 362.609 111.415,362.184 111.992,361.939 112.174 C 361.695 112.356,361.495 112.605,361.495 112.727 C 361.495 113.054,356.886 117.671,356.365 117.867 C 356.121 117.959,355.921 118.133,355.921 118.255 C 355.921 118.377,355.522 118.691,355.035 118.954 C 354.547 119.216,354.148 119.505,354.148 119.596 C 354.148 119.687,353.806 119.903,353.388 120.076 C 352.970 120.249,352.628 120.470,352.628 120.566 C 352.628 120.663,352.229 120.898,351.742 121.089 C 351.254 121.281,350.855 121.518,350.855 121.618 C 350.855 121.717,350.285 122.003,349.588 122.254 C 348.892 122.504,348.322 122.787,348.322 122.881 C 348.322 122.975,347.980 123.121,347.562 123.205 C 347.144 123.288,346.317 123.577,345.725 123.846 C 345.133 124.115,344.079 124.418,343.382 124.520 C 342.685 124.623,342.058 124.793,341.989 124.899 C 341.419 125.768,326.899 125.764,326.282 124.896 C 326.213 124.797,325.446 124.580,324.580 124.412 C 323.713 124.244,322.687 123.941,322.300 123.739 C 321.913 123.537,321.225 123.302,320.773 123.216 C 320.320 123.130,319.949 122.974,319.949 122.869 C 319.949 122.764,319.408 122.474,318.746 122.224 C 318.084 121.974,317.486 121.701,317.416 121.619 C 317.346 121.536,316.947 121.298,316.529 121.089 C 316.111 120.880,315.548 120.510,315.278 120.266 C 315.008 120.022,314.695 119.823,314.582 119.823 C 314.469 119.823,314.160 119.623,313.895 119.379 C 313.631 119.136,312.998 118.651,312.489 118.303 C 311.576 117.677,306.776 113.060,306.776 112.807 C 306.776 112.735,306.434 112.244,306.016 111.716 C 305.598 111.189,305.256 110.627,305.256 110.469 C 305.256 110.310,305.094 110.118,304.896 110.042 C 304.698 109.966,304.352 109.485,304.128 108.973 C 303.903 108.462,303.267 107.190,302.715 106.148 C 302.162 105.105,301.710 104.051,301.710 103.805 C 301.710 103.558,301.614 103.357,301.497 103.357 C 301.380 103.357,301.139 102.701,300.962 101.900 C 300.785 101.099,300.486 100.067,300.296 99.608 C 300.107 99.148,299.827 97.780,299.673 96.568 C 299.519 95.355,299.288 94.166,299.158 93.924 C 298.855 93.355,298.851 86.008,299.155 85.430 C 299.282 85.188,299.515 83.913,299.673 82.596 C 299.830 81.279,300.061 80.079,300.186 79.929 C 300.310 79.780,300.599 78.834,300.828 77.827 C 301.057 76.821,301.328 75.997,301.431 75.997 C 301.534 75.997,301.774 75.427,301.963 74.731 C 302.153 74.034,302.383 73.464,302.475 73.464 C 302.567 73.464,302.793 73.008,302.977 72.451 C 303.160 71.894,303.389 71.438,303.485 71.438 C 303.581 71.438,303.865 70.982,304.117 70.424 C 304.368 69.867,304.656 69.411,304.758 69.411 C 304.859 69.411,305.083 69.069,305.256 68.651 C 305.430 68.233,305.647 67.891,305.739 67.891 C 305.832 67.891,306.118 67.534,306.376 67.098 C 306.633 66.662,307.285 65.877,307.824 65.354 C 308.362 64.832,308.803 64.276,308.803 64.121 C 308.803 63.965,308.903 63.838,309.025 63.838 C 309.147 63.838,309.713 63.399,310.283 62.862 C 311.884 61.354,313.546 60.038,313.849 60.038 C 314.000 60.038,314.123 59.926,314.123 59.788 C 314.123 59.651,314.493 59.360,314.946 59.141 C 316.222 58.526,317.515 57.809,317.813 57.551 C 317.962 57.423,318.504 57.166,319.017 56.980 C 319.530 56.795,319.949 56.570,319.949 56.481 C 319.949 56.392,320.690 56.108,321.596 55.849 C 322.502 55.590,323.243 55.298,323.243 55.201 C 323.243 55.104,324.212 54.880,325.396 54.704 C 326.580 54.527,327.549 54.294,327.549 54.185 C 327.549 53.695,340.148 53.644,340.771 54.131 M120.076 172.294 C 120.076 172.451,119.577 173.619,118.967 174.890 C 117.133 178.712,115.516 182.335,115.516 182.624 C 115.516 182.742,115.356 182.971,115.161 183.133 C 114.966 183.295,114.735 183.737,114.648 184.114 C 114.561 184.492,114.105 185.598,113.633 186.574 C 111.696 190.580,110.956 192.255,110.956 192.634 C 110.956 192.854,110.842 193.034,110.703 193.034 C 110.564 193.034,110.450 193.147,110.450 193.286 C 110.450 193.425,110.108 194.263,109.690 195.147 C 109.272 196.032,108.930 196.887,108.930 197.048 C 108.930 197.209,108.834 197.340,108.718 197.340 C 108.601 197.340,108.288 197.996,108.022 198.797 C 107.756 199.598,107.478 200.310,107.405 200.380 C 107.068 200.698,105.890 203.262,105.890 203.676 C 105.890 204.886,106.031 204.940,109.189 204.940 L 112.180 204.940 112.517 204.180 C 112.702 203.762,112.927 203.420,113.017 203.420 C 113.107 203.420,113.258 203.106,113.352 202.723 C 113.446 202.340,113.803 201.428,114.147 200.697 L 114.771 199.367 121.333 199.367 C 127.874 199.367,127.895 199.368,128.072 199.925 C 128.170 200.232,128.405 200.639,128.596 200.830 C 128.786 201.020,128.942 201.357,128.942 201.578 C 128.942 201.799,129.256 202.643,129.639 203.454 L 130.336 204.928 133.412 204.934 C 135.987 204.939,136.513 204.875,136.642 204.539 C 136.889 203.895,136.820 203.228,136.470 202.868 C 136.290 202.684,136.001 202.049,135.826 201.457 C 135.651 200.864,135.417 200.380,135.305 200.380 C 135.194 200.380,134.895 199.696,134.642 198.860 C 134.389 198.024,134.104 197.340,134.009 197.340 C 133.914 197.340,133.686 196.884,133.502 196.327 C 133.318 195.769,133.097 195.313,133.010 195.313 C 132.924 195.313,132.701 194.801,132.516 194.174 C 132.331 193.547,132.091 193.034,131.982 193.034 C 131.873 193.034,131.707 192.720,131.614 192.337 C 131.521 191.954,131.122 190.956,130.729 190.120 C 129.161 186.788,128.689 185.707,128.689 185.450 C 128.689 185.302,128.588 185.180,128.464 185.180 C 128.340 185.180,128.165 184.785,128.074 184.302 C 127.983 183.819,127.759 183.273,127.575 183.089 C 127.391 182.906,127.083 182.304,126.890 181.751 C 126.697 181.199,126.470 180.690,126.387 180.621 C 126.304 180.551,126.022 179.927,125.760 179.235 C 125.499 178.543,125.082 177.578,124.834 177.092 C 124.585 176.605,124.383 176.060,124.383 175.881 C 124.383 175.701,124.276 175.554,124.146 175.554 C 124.016 175.554,123.838 175.298,123.751 174.984 C 123.125 172.740,122.532 172.028,121.279 172.017 C 120.548 172.011,120.076 172.120,120.076 172.294 M28.273 172.662 C 28.072 173.185,28.072 204.016,28.273 204.539 C 28.487 205.097,33.791 205.131,34.344 204.578 C 34.637 204.285,34.706 203.082,34.706 198.245 L 34.706 192.274 36.842 192.274 L 38.979 192.274 39.300 193.160 C 39.476 193.648,39.702 194.047,39.803 194.047 C 39.903 194.047,40.174 194.617,40.405 195.313 C 40.637 196.010,40.913 196.580,41.018 196.580 C 41.124 196.580,41.361 197.036,41.545 197.593 C 41.729 198.151,41.953 198.607,42.042 198.607 C 42.132 198.607,42.410 199.177,42.661 199.873 C 42.911 200.570,43.204 201.140,43.311 201.140 C 43.418 201.140,43.650 201.653,43.825 202.280 C 44.001 202.907,44.216 203.420,44.303 203.420 C 44.390 203.420,44.613 203.762,44.798 204.180 L 45.134 204.940 48.379 204.940 C 51.792 204.940,51.934 204.891,51.930 203.716 C 51.929 203.278,50.249 199.843,49.926 199.620 C 49.826 199.550,49.541 198.981,49.295 198.354 C 49.048 197.728,48.771 197.158,48.679 197.088 C 48.587 197.017,48.113 196.166,47.625 195.195 C 47.137 194.224,46.596 193.275,46.422 193.087 C 45.944 192.569,46.042 191.821,46.612 191.640 C 46.890 191.552,47.118 191.373,47.118 191.243 C 47.118 191.113,47.282 191.007,47.481 191.007 C 47.847 191.007,50.157 188.829,50.983 187.706 C 51.227 187.374,51.563 186.441,51.730 185.634 C 51.897 184.827,52.124 184.167,52.236 184.167 C 52.347 184.167,52.438 183.426,52.438 182.521 C 52.438 181.592,52.328 180.874,52.185 180.874 C 52.046 180.874,51.927 180.560,51.920 180.177 C 51.906 179.285,51.269 177.487,50.927 177.373 C 50.783 177.325,50.665 177.170,50.665 177.029 C 50.665 175.677,46.575 172.768,44.674 172.768 C 44.347 172.768,44.079 172.654,44.079 172.514 C 44.079 172.037,28.457 172.182,28.273 172.662 M71.121 172.614 C 70.527 173.065,70.442 203.721,71.032 204.499 C 71.347 204.914,72.073 204.941,81.347 204.879 L 91.324 204.813 91.395 201.837 L 91.466 198.860 84.365 198.860 L 77.264 198.860 77.264 195.187 L 77.264 191.514 83.040 191.514 C 89.875 191.514,89.425 191.727,89.420 188.486 C 89.414 185.057,89.925 185.320,83.100 185.231 L 77.264 185.154 77.264 181.874 L 77.264 178.594 83.956 178.594 C 87.637 178.594,90.829 178.525,91.050 178.440 C 91.463 178.282,91.662 173.614,91.297 172.662 C 91.085 172.109,71.846 172.064,71.121 172.614 M153.072 172.640 C 152.738 173.019,152.581 203.686,152.909 204.539 C 153.045 204.894,154.109 204.940,162.282 204.940 L 171.501 204.940 171.501 201.900 L 171.501 198.860 165.421 198.860 L 159.341 198.860 159.333 186.004 C 159.327 175.715,159.258 173.059,158.989 172.704 C 158.540 172.114,153.582 172.060,153.072 172.640 M183.275 172.831 C 183.196 173.144,183.166 174.541,183.206 175.934 L 183.281 178.467 187.017 178.537 L 190.754 178.608 190.754 191.373 C 190.754 198.394,190.823 204.319,190.907 204.539 C 191.036 204.873,191.560 204.940,194.074 204.940 L 197.087 204.940 197.087 191.767 L 197.087 178.594 200.650 178.594 C 205.340 178.594,205.193 178.693,205.193 175.527 C 205.193 171.933,206.322 172.261,193.943 172.261 L 183.417 172.261 183.275 172.831 M219.177 172.565 C 218.778 172.964,218.786 174.207,219.190 174.465 C 219.364 174.576,219.678 175.006,219.886 175.420 C 220.095 175.834,220.437 176.362,220.646 176.594 C 220.855 176.826,221.311 177.501,221.659 178.094 C 222.008 178.687,222.407 179.299,222.547 179.453 C 222.687 179.608,223.257 180.417,223.814 181.252 C 224.370 182.087,224.968 182.922,225.142 183.107 C 225.317 183.292,225.459 183.541,225.459 183.661 C 225.459 183.780,225.602 184.028,225.776 184.212 C 226.218 184.678,227.574 186.734,227.794 187.270 C 227.894 187.514,228.094 187.714,228.238 187.714 C 228.381 187.714,228.502 187.856,228.505 188.030 C 228.508 188.205,228.733 188.632,229.006 188.980 C 229.471 189.575,229.501 190.058,229.507 196.876 C 229.514 205.823,229.166 204.940,232.679 204.940 C 236.195 204.940,235.845 205.858,235.845 196.620 C 235.845 189.377,235.864 189.091,236.352 188.786 C 236.631 188.612,236.859 188.299,236.859 188.092 C 236.859 187.884,236.976 187.714,237.120 187.714 C 237.264 187.714,237.464 187.514,237.564 187.270 C 237.742 186.836,239.132 184.670,239.393 184.421 C 239.466 184.351,239.980 183.611,240.535 182.776 C 241.091 181.941,241.688 181.106,241.862 180.921 C 242.036 180.736,242.179 180.487,242.179 180.367 C 242.179 180.248,242.322 180.000,242.497 179.815 C 242.671 179.631,243.270 178.797,243.826 177.961 C 244.383 177.125,244.896 176.384,244.966 176.314 C 245.560 175.723,246.485 174.011,246.485 173.501 C 246.485 172.398,246.088 172.260,242.951 172.271 L 240.025 172.281 239.202 173.400 C 238.749 174.016,238.379 174.638,238.379 174.784 C 238.379 174.929,238.261 175.047,238.117 175.047 C 237.974 175.047,237.784 175.247,237.696 175.491 C 237.608 175.735,237.383 176.105,237.195 176.314 C 237.007 176.523,236.212 177.663,235.427 178.847 C 234.643 180.032,233.919 181.058,233.819 181.127 C 233.718 181.197,233.444 181.628,233.210 182.086 C 232.811 182.864,232.299 182.993,232.299 182.316 C 232.298 182.150,232.017 181.687,231.673 181.286 C 231.328 180.886,230.982 180.355,230.903 180.106 C 230.824 179.858,230.593 179.590,230.389 179.512 C 230.186 179.434,230.019 179.242,230.019 179.087 C 230.019 178.736,228.488 176.515,228.056 176.238 C 227.882 176.127,227.739 175.876,227.739 175.681 C 227.739 175.486,227.596 175.235,227.422 175.123 C 227.248 175.012,226.936 174.579,226.729 174.161 C 225.876 172.438,225.467 172.261,222.330 172.261 C 220.452 172.261,219.377 172.365,219.177 172.565 M43.660 179.101 C 45.336 180.502,45.699 181.103,45.712 182.501 C 45.724 183.906,45.085 185.135,43.857 186.068 C 43.265 186.518,42.724 186.583,38.949 186.654 L 34.706 186.734 34.706 182.647 L 34.706 178.561 38.956 178.641 C 42.274 178.703,43.305 178.804,43.660 179.101 M121.868 185.687 C 121.975 185.687,122.143 186.058,122.241 186.510 C 122.339 186.963,122.629 187.733,122.885 188.220 C 123.604 189.591,124.889 192.501,124.889 192.760 C 124.889 192.887,125.032 193.049,125.206 193.119 C 125.380 193.189,123.642 193.254,121.343 193.263 C 119.044 193.272,117.293 193.195,117.451 193.093 C 117.610 192.991,117.885 192.422,118.061 191.830 C 118.238 191.238,118.470 190.754,118.576 190.754 C 118.682 190.754,118.847 190.383,118.943 189.930 C 119.039 189.478,119.322 188.765,119.572 188.347 C 119.822 187.929,120.170 187.103,120.345 186.510 C 120.520 185.918,120.759 185.434,120.876 185.434 C 120.993 185.434,121.097 185.234,121.106 184.991 C 121.120 184.638,121.180 184.663,121.398 185.117 C 121.550 185.431,121.761 185.687,121.868 185.687 M114.250 220.081 C 114.250 220.189,113.548 220.410,112.690 220.573 C 111.833 220.736,111.064 220.971,110.981 221.096 C 110.898 221.221,110.459 221.450,110.007 221.604 C 109.555 221.759,108.803 222.177,108.336 222.532 C 107.870 222.888,107.423 223.179,107.343 223.179 C 107.124 223.179,105.042 225.304,104.480 226.100 C 103.093 228.064,102.574 228.965,102.334 229.829 C 102.189 230.351,101.973 230.779,101.853 230.779 C 100.936 230.779,100.875 240.178,101.779 242.199 C 102.054 242.815,102.417 243.746,102.584 244.269 C 102.752 244.791,102.994 245.218,103.123 245.218 C 103.251 245.218,103.357 245.365,103.357 245.545 C 103.357 245.724,103.694 246.266,104.106 246.748 C 104.519 247.230,104.861 247.768,104.866 247.942 C 104.872 248.116,104.962 248.260,105.066 248.262 C 105.171 248.263,105.717 248.691,106.281 249.212 C 107.509 250.347,108.989 251.327,110.196 251.805 C 110.684 251.998,111.144 252.244,111.219 252.351 C 112.007 253.483,122.734 253.457,123.623 252.321 C 123.692 252.232,124.291 251.956,124.953 251.708 C 125.614 251.459,126.156 251.152,126.156 251.024 C 126.156 250.896,126.298 250.790,126.472 250.787 C 127.364 250.774,130.831 247.273,131.541 245.669 C 131.712 245.282,131.939 244.965,132.044 244.965 C 132.149 244.965,132.236 244.855,132.236 244.719 C 132.236 244.584,132.517 243.859,132.861 243.107 C 133.204 242.356,133.608 240.899,133.757 239.870 C 133.907 238.841,134.095 237.615,134.177 237.147 C 134.258 236.678,134.207 235.880,134.063 235.373 C 133.919 234.867,133.673 233.602,133.517 232.562 C 133.360 231.522,133.144 230.610,133.036 230.535 C 132.928 230.460,132.682 230.000,132.489 229.512 C 132.296 229.025,132.074 228.569,131.997 228.499 C 131.919 228.429,131.637 227.943,131.370 227.418 C 130.383 225.477,126.809 222.284,124.888 221.626 C 124.401 221.459,123.935 221.221,123.852 221.096 C 123.769 220.971,122.999 220.736,122.142 220.573 C 121.284 220.410,120.583 220.189,120.583 220.081 C 120.583 219.974,119.158 219.886,117.416 219.886 C 115.674 219.886,114.250 219.974,114.250 220.081 M267.212 220.709 C 266.197 222.729,265.249 224.882,265.093 225.522 C 264.999 225.906,264.840 226.219,264.738 226.219 C 264.636 226.219,264.402 226.675,264.218 227.232 C 264.034 227.790,263.803 228.246,263.704 228.246 C 263.605 228.246,263.380 228.759,263.205 229.386 C 263.029 230.013,262.805 230.526,262.706 230.526 C 262.608 230.526,262.309 231.181,262.043 231.982 C 261.778 232.783,261.498 233.496,261.421 233.566 C 261.194 233.774,259.968 236.407,259.623 237.429 C 259.447 237.951,259.224 238.379,259.128 238.379 C 259.032 238.379,258.802 238.892,258.617 239.519 C 258.432 240.146,258.210 240.659,258.123 240.659 C 258.037 240.659,257.815 241.115,257.631 241.672 C 257.447 242.229,257.217 242.685,257.119 242.685 C 257.021 242.685,256.737 243.341,256.487 244.142 C 256.238 244.943,255.958 245.655,255.865 245.725 C 255.772 245.795,255.435 246.422,255.116 247.118 C 254.797 247.815,254.264 248.955,253.931 249.652 C 252.523 252.597,252.732 252.846,256.546 252.762 L 259.766 252.692 260.017 251.805 C 260.155 251.317,260.415 250.768,260.596 250.584 C 260.777 250.399,260.925 250.138,260.925 250.003 C 260.925 249.868,261.181 249.194,261.495 248.506 L 262.065 247.255 268.594 247.250 L 275.123 247.245 275.382 247.942 C 275.524 248.325,276.105 249.582,276.673 250.736 L 277.705 252.833 280.778 252.762 C 284.315 252.681,284.495 252.527,283.489 250.450 C 283.200 249.853,282.964 249.187,282.964 248.969 C 282.964 248.752,282.793 248.432,282.584 248.258 C 282.375 248.085,282.204 247.810,282.204 247.648 C 282.204 247.485,281.978 246.910,281.703 246.369 C 281.427 245.829,281.076 245.007,280.923 244.543 C 280.770 244.078,280.549 243.699,280.431 243.699 C 280.314 243.699,280.137 243.331,280.038 242.882 C 279.881 242.168,279.108 240.425,278.040 238.379 C 277.858 238.030,277.572 237.318,277.404 236.795 C 277.236 236.273,277.006 235.845,276.893 235.845 C 276.780 235.845,276.613 235.450,276.522 234.967 C 276.432 234.484,276.200 233.931,276.008 233.738 C 275.815 233.546,275.530 232.915,275.374 232.337 C 275.219 231.759,274.994 231.286,274.875 231.286 C 274.756 231.286,274.587 230.996,274.498 230.643 C 274.409 230.290,273.998 229.261,273.584 228.357 C 273.170 227.453,272.831 226.602,272.831 226.466 C 272.831 226.330,272.732 226.219,272.611 226.219 C 272.489 226.219,272.246 225.706,272.071 225.079 C 271.895 224.452,271.675 223.939,271.582 223.939 C 271.489 223.939,271.264 223.512,271.081 222.989 C 269.928 219.682,268.231 218.683,267.212 220.709 M303.230 220.095 C 303.230 220.209,302.544 220.431,301.707 220.587 C 300.869 220.742,300.006 221.047,299.789 221.265 C 299.571 221.482,299.269 221.659,299.117 221.659 C 297.589 221.659,292.565 226.653,291.819 228.914 C 291.664 229.382,291.448 229.766,291.339 229.766 C 291.229 229.766,290.993 230.478,290.814 231.349 C 290.634 232.220,290.384 233.066,290.258 233.229 C 289.141 234.671,290.917 244.145,292.679 246.142 C 292.839 246.324,293.198 246.770,293.477 247.134 C 294.429 248.376,295.563 249.525,295.837 249.525 C 295.988 249.525,296.203 249.672,296.314 249.851 C 296.637 250.371,298.891 251.758,299.703 251.936 C 300.110 252.025,300.443 252.191,300.443 252.303 C 300.443 253.397,312.262 253.404,313.743 252.311 C 313.882 252.208,314.452 251.980,315.009 251.803 C 315.567 251.627,316.564 251.211,317.226 250.879 L 318.429 250.276 318.429 243.618 C 318.429 238.777,318.346 236.877,318.125 236.656 C 317.909 236.440,316.370 236.352,312.810 236.352 C 306.953 236.352,307.469 236.002,307.589 239.899 L 307.663 242.305 309.753 242.379 L 311.843 242.452 311.843 244.095 C 311.843 245.979,311.709 246.094,309.160 246.394 C 308.399 246.483,307.715 246.654,307.641 246.774 C 307.455 247.075,306.335 247.048,306.143 246.738 C 306.057 246.599,305.712 246.485,305.377 246.485 C 304.553 246.485,302.469 245.760,302.029 245.321 C 301.834 245.125,301.568 244.965,301.439 244.965 C 301.091 244.965,298.670 242.387,298.670 242.016 C 298.670 241.841,298.514 241.606,298.323 241.495 C 297.059 240.756,296.914 232.046,298.167 232.046 C 298.285 232.046,298.464 231.789,298.562 231.476 C 298.746 230.893,299.317 230.181,300.443 229.127 C 301.825 227.836,302.232 227.562,303.280 227.225 C 303.880 227.032,304.437 226.778,304.519 226.660 C 304.720 226.375,309.097 226.386,309.287 226.673 C 309.369 226.797,309.976 227.080,310.635 227.302 C 311.295 227.524,312.207 228.054,312.662 228.481 C 313.959 229.697,314.587 229.546,316.521 227.554 C 318.465 225.552,318.602 224.934,317.353 223.793 C 316.157 222.702,315.139 222.038,314.060 221.648 C 313.537 221.459,313.110 221.229,313.110 221.136 C 313.110 221.044,312.397 220.823,311.526 220.645 C 310.655 220.467,309.835 220.223,309.702 220.103 C 309.394 219.825,303.230 219.817,303.230 220.095 M28.942 220.560 C 28.694 220.661,28.626 224.141,28.626 236.767 L 28.626 252.845 36.615 252.768 C 42.110 252.716,44.661 252.604,44.785 252.411 C 44.884 252.256,45.395 251.976,45.921 251.788 C 46.965 251.414,48.974 249.721,49.532 248.746 C 50.362 247.295,50.498 246.730,50.607 244.280 C 50.760 240.823,49.040 237.540,46.775 236.972 C 45.806 236.729,45.830 236.299,46.861 235.465 C 48.183 234.395,49.343 232.615,49.546 231.343 C 49.641 230.748,49.817 230.200,49.938 230.125 C 50.245 229.935,50.215 227.992,49.905 227.992 C 49.766 227.992,49.652 227.629,49.652 227.186 C 49.652 225.401,47.241 222.243,45.419 221.642 C 44.960 221.490,44.585 221.277,44.585 221.168 C 44.585 220.549,30.342 219.996,28.942 220.560 M66.741 220.709 C 66.674 220.883,66.649 228.151,66.685 236.859 L 66.751 252.692 69.791 252.692 L 72.831 252.692 72.899 246.548 L 72.967 240.405 75.052 240.409 C 77.431 240.414,77.548 240.464,78.017 241.672 C 78.206 242.160,78.499 242.730,78.667 242.939 C 78.836 243.148,79.111 243.746,79.278 244.269 C 79.446 244.791,79.670 245.218,79.776 245.218 C 79.883 245.218,80.120 245.674,80.304 246.232 C 80.488 246.789,80.712 247.245,80.801 247.245 C 80.891 247.245,81.169 247.815,81.419 248.512 C 81.670 249.208,81.959 249.778,82.063 249.778 C 82.166 249.778,82.387 250.234,82.554 250.792 C 82.721 251.349,82.954 251.805,83.071 251.805 C 83.189 251.805,83.345 252.036,83.419 252.319 C 83.640 253.164,90.271 252.971,90.392 252.116 C 90.465 251.605,89.086 248.330,88.662 248.005 C 88.571 247.935,88.335 247.508,88.138 247.055 C 87.941 246.602,87.703 246.232,87.609 246.232 C 87.515 246.232,87.248 245.662,87.017 244.965 C 86.786 244.269,86.504 243.699,86.391 243.699 C 86.278 243.699,86.116 243.422,86.031 243.083 C 85.946 242.744,85.714 242.305,85.516 242.107 C 85.317 241.908,84.978 241.323,84.762 240.807 L 84.370 239.867 85.250 239.500 C 85.734 239.297,86.130 239.019,86.130 238.882 C 86.130 238.745,86.274 238.632,86.449 238.632 C 86.900 238.632,89.424 235.960,89.424 235.483 C 89.424 235.264,89.513 235.085,89.621 235.085 C 90.384 235.085,90.930 230.413,90.455 227.946 C 89.949 225.316,87.370 221.980,85.475 221.504 C 85.139 221.420,84.864 221.265,84.864 221.160 C 84.864 220.403,67.028 219.959,66.741 220.709 M147.354 220.709 C 146.955 221.003,146.928 222.199,146.989 236.859 L 147.055 252.692 150.254 252.762 C 154.146 252.848,153.760 253.657,153.765 245.408 C 153.767 241.400,153.860 239.139,154.022 239.139 C 154.161 239.139,154.275 239.227,154.275 239.336 C 154.275 239.444,154.588 239.896,154.972 240.340 C 155.355 240.784,155.896 241.445,156.175 241.809 C 156.453 242.172,156.932 242.775,157.239 243.147 C 157.546 243.520,158.344 244.514,159.012 245.356 C 160.511 247.243,160.837 247.635,161.558 248.421 C 161.871 248.762,162.128 249.125,162.128 249.227 C 162.128 249.410,163.180 250.684,164.158 251.687 C 164.435 251.971,164.661 252.344,164.661 252.517 C 164.661 252.757,165.553 252.815,168.398 252.762 L 172.134 252.692 172.210 251.785 C 172.275 251.018,172.129 250.716,171.260 249.822 C 170.696 249.240,170.234 248.704,170.234 248.630 C 170.234 248.523,168.736 246.692,167.083 244.782 C 166.935 244.611,166.586 244.170,166.308 243.801 C 166.029 243.433,165.630 242.941,165.421 242.708 C 165.212 242.475,164.589 241.719,164.037 241.028 C 163.484 240.337,162.886 239.681,162.707 239.569 C 162.528 239.458,162.381 239.254,162.381 239.116 C 162.381 238.979,161.941 238.408,161.403 237.848 C 159.409 235.773,159.421 235.721,162.646 232.409 C 163.197 231.843,163.648 231.308,163.648 231.221 C 163.648 231.134,164.132 230.550,164.725 229.925 C 165.317 229.299,165.915 228.637,166.054 228.452 C 166.271 228.166,169.984 223.997,170.931 222.978 C 172.503 221.284,171.600 220.531,167.898 220.449 L 164.729 220.378 163.998 221.301 C 163.597 221.809,162.840 222.667,162.318 223.209 C 161.795 223.750,161.368 224.266,161.368 224.355 C 161.368 224.444,160.914 224.985,160.360 225.558 C 159.805 226.131,158.715 227.340,157.938 228.246 C 157.160 229.151,156.018 230.413,155.400 231.049 C 154.781 231.685,154.275 232.340,154.275 232.505 C 154.275 232.671,154.161 232.806,154.022 232.806 C 153.860 232.806,153.768 230.784,153.768 227.249 C 153.768 219.970,153.968 220.393,150.530 220.393 C 148.733 220.393,147.636 220.502,147.354 220.709 M185.306 220.960 C 185.230 221.275,185.199 228.543,185.237 237.112 L 185.307 252.692 195.503 252.758 L 205.700 252.824 205.700 249.908 L 205.700 246.992 198.607 246.992 L 191.514 246.992 191.514 243.192 L 191.514 239.392 197.462 239.392 L 203.410 239.392 203.553 238.822 C 203.631 238.509,203.662 237.226,203.621 235.972 L 203.547 233.692 197.530 233.624 L 191.514 233.556 191.514 230.018 L 191.514 226.480 198.543 226.413 L 205.573 226.346 205.573 223.433 L 205.573 220.519 195.509 220.453 L 185.445 220.387 185.306 220.960 M219.042 220.562 C 218.949 220.654,218.873 227.950,218.873 236.774 L 218.873 252.818 222.010 252.818 C 225.816 252.818,225.451 253.535,225.456 246.042 L 225.459 240.405 227.552 240.405 L 229.644 240.405 230.526 242.305 C 231.010 243.350,231.494 244.205,231.600 244.205 C 231.706 244.205,231.792 244.321,231.792 244.462 C 231.792 244.778,233.598 248.590,233.830 248.765 C 233.923 248.835,234.138 249.319,234.308 249.842 C 234.479 250.364,234.705 250.792,234.811 250.792 C 234.917 250.792,235.155 251.248,235.339 251.805 L 235.673 252.818 239.053 252.818 L 242.432 252.818 242.432 251.855 C 242.432 250.905,241.958 249.531,241.629 249.527 C 241.536 249.526,241.270 248.955,241.039 248.258 C 240.807 247.562,240.513 246.992,240.385 246.992 C 240.257 246.992,240.152 246.837,240.152 246.647 C 240.152 246.458,239.891 245.916,239.573 245.444 C 239.254 244.972,238.833 244.186,238.637 243.699 C 238.441 243.211,238.217 242.754,238.140 242.683 C 237.435 242.040,236.634 239.873,237.045 239.723 C 237.695 239.487,239.687 238.082,240.207 237.492 C 241.426 236.110,242.161 234.982,242.320 234.249 C 242.416 233.803,242.612 233.365,242.755 233.274 C 243.091 233.060,243.120 228.148,242.788 227.698 C 242.650 227.512,242.385 226.911,242.198 226.363 C 241.798 225.187,241.718 225.077,239.863 223.160 C 239.077 222.347,238.108 221.603,237.709 221.505 C 237.311 221.408,236.914 221.219,236.826 221.085 C 236.433 220.486,219.613 219.990,219.042 220.562 M330.136 220.694 C 329.609 221.221,329.700 252.461,330.230 252.664 C 330.450 252.749,335.124 252.818,340.616 252.818 L 350.602 252.818 350.602 249.905 L 350.602 246.992 343.509 246.992 L 336.415 246.992 336.415 243.192 L 336.415 239.392 342.364 239.392 L 348.312 239.392 348.455 238.822 C 348.533 238.509,348.564 237.226,348.523 235.972 L 348.448 233.692 342.432 233.624 L 336.415 233.556 336.415 230.018 L 336.415 226.480 343.445 226.413 L 350.475 226.346 350.475 223.433 L 350.475 220.519 340.459 220.453 C 332.880 220.403,330.368 220.462,330.136 220.694 M41.522 227.120 C 43.399 228.363,43.499 231.066,41.734 232.871 C 40.932 233.692,40.931 233.692,37.945 233.782 L 34.959 233.872 34.959 230.172 L 34.959 226.472 37.751 226.472 C 40.322 226.472,40.620 226.524,41.522 227.120 M81.320 226.662 C 81.322 226.767,81.749 227.057,82.270 227.306 C 83.153 227.729,83.851 228.670,83.851 229.436 C 83.851 229.617,83.965 229.766,84.104 229.766 C 84.243 229.766,84.357 230.165,84.357 230.652 C 84.357 231.140,84.243 231.539,84.104 231.539 C 83.965 231.539,83.851 231.687,83.851 231.868 C 83.851 232.614,83.163 233.579,82.331 234.002 C 81.843 234.249,81.406 234.538,81.360 234.642 C 81.313 234.747,79.404 234.832,77.116 234.832 L 72.958 234.832 72.958 230.652 L 72.958 226.472 77.137 226.472 C 79.436 226.472,81.319 226.558,81.320 226.662 M119.409 226.650 C 119.507 226.748,120.185 227.013,120.917 227.239 C 123.731 228.110,126.690 231.592,127.089 234.504 C 127.172 235.110,127.338 235.667,127.458 235.741 C 127.741 235.916,127.741 237.548,127.458 237.724 C 127.338 237.798,127.170 238.372,127.084 238.999 C 126.804 241.041,125.193 243.288,122.453 245.458 C 122.008 245.811,119.868 246.485,119.195 246.485 C 118.860 246.485,118.515 246.599,118.429 246.738 C 118.343 246.878,117.887 246.992,117.416 246.992 C 116.945 246.992,116.489 246.878,116.403 246.738 C 116.317 246.599,115.988 246.485,115.673 246.485 C 114.821 246.485,112.633 245.696,112.400 245.306 C 112.289 245.118,112.076 244.965,111.928 244.965 C 111.621 244.965,109.183 242.479,109.183 242.166 C 109.183 242.053,109.022 241.800,108.825 241.603 C 107.347 240.126,107.347 233.338,108.825 231.861 C 109.022 231.664,109.183 231.384,109.183 231.238 C 109.183 230.877,111.772 228.254,112.132 228.249 C 112.292 228.247,112.482 228.088,112.556 227.896 C 112.630 227.703,113.270 227.407,113.978 227.237 C 114.685 227.067,115.328 226.826,115.405 226.700 C 115.570 226.434,119.148 226.389,119.409 226.650 M234.044 227.024 C 236.293 228.224,237.049 230.698,235.781 232.707 C 234.592 234.591,233.864 234.832,229.371 234.832 L 225.459 234.832 225.459 230.652 L 225.459 226.472 229.235 226.472 C 232.628 226.472,233.116 226.528,234.044 227.024 M269.027 233.882 C 269.029 234.126,269.127 234.326,269.244 234.326 C 269.361 234.326,269.607 234.782,269.791 235.339 C 269.975 235.896,270.203 236.352,270.298 236.352 C 270.393 236.352,270.614 236.837,270.789 237.429 C 270.963 238.021,271.309 238.847,271.556 239.265 C 271.803 239.683,272.080 240.339,272.170 240.722 L 272.334 241.419 268.554 241.419 L 264.773 241.419 265.293 239.962 C 265.579 239.161,265.897 238.448,266.000 238.379 C 266.104 238.309,266.333 237.768,266.510 237.175 C 266.687 236.583,266.918 236.099,267.024 236.099 C 267.131 236.099,267.296 235.728,267.392 235.275 C 267.802 233.333,269.013 232.302,269.027 233.882 M40.865 239.663 C 43.301 240.340,44.855 243.907,43.231 245.094 C 43.001 245.263,42.812 245.517,42.812 245.659 C 42.812 245.801,42.470 246.059,42.052 246.232 C 41.634 246.405,41.292 246.647,41.292 246.769 C 41.292 246.892,39.867 246.992,38.125 246.992 L 34.959 246.992 34.959 243.192 L 34.959 239.392 37.429 239.393 C 38.787 239.394,40.334 239.516,40.865 239.663 " stroke="none" fill="#1c449c" fill-rule="evenodd"></path><path id="path1" d="M124.909 28.861 C 124.606 29.053,124.626 29.198,125.036 29.778 C 125.304 30.156,125.657 30.698,125.821 30.982 C 125.984 31.266,126.298 31.598,126.517 31.721 C 126.736 31.844,126.916 32.071,126.916 32.227 C 126.916 32.382,127.084 32.690,127.289 32.911 C 128.294 33.990,129.196 35.181,129.196 35.427 C 129.196 35.578,129.424 35.823,129.702 35.972 C 129.981 36.121,130.209 36.372,130.209 36.530 C 130.209 36.687,130.375 36.997,130.577 37.218 C 131.741 38.485,131.972 38.775,132.251 39.310 C 132.555 39.890,132.720 40.103,133.744 41.229 C 134.029 41.542,134.262 41.869,134.262 41.955 C 134.262 42.041,134.576 42.474,134.959 42.917 C 135.342 43.360,135.883 44.044,136.162 44.436 C 136.441 44.829,136.865 45.394,137.104 45.691 C 137.967 46.765,139.329 48.645,139.329 48.765 C 139.329 48.832,139.645 49.202,140.032 49.586 C 140.638 50.188,141.577 51.457,142.495 52.915 C 142.635 53.136,142.948 53.468,143.192 53.652 C 143.436 53.836,143.635 54.113,143.635 54.268 C 143.635 54.423,143.805 54.730,144.012 54.950 C 145.131 56.143,145.915 57.141,145.915 57.374 C 145.915 57.518,146.143 57.779,146.422 57.953 C 146.700 58.127,146.928 58.435,146.928 58.638 C 146.928 58.841,147.156 59.129,147.435 59.278 C 147.714 59.427,147.942 59.678,147.942 59.836 C 147.942 59.993,148.107 60.303,148.310 60.523 C 149.500 61.821,149.724 62.107,150.072 62.780 C 150.283 63.189,150.631 63.590,150.846 63.673 C 151.060 63.755,151.235 63.993,151.235 64.201 C 151.235 64.409,151.463 64.702,151.742 64.851 C 152.020 65.000,152.248 65.244,152.248 65.393 C 152.248 65.543,152.505 65.973,152.818 66.351 C 153.132 66.728,153.616 67.360,153.895 67.756 C 154.174 68.151,154.601 68.686,154.845 68.943 C 155.089 69.200,155.288 69.481,155.288 69.568 C 155.288 69.654,155.602 70.087,155.985 70.529 C 156.368 70.972,156.909 71.656,157.188 72.049 C 157.467 72.441,157.890 73.006,158.130 73.303 C 158.895 74.255,160.355 76.252,160.355 76.348 C 160.355 76.399,160.751 76.873,161.236 77.402 C 162.109 78.356,163.395 78.419,163.395 77.508 C 163.395 77.277,163.953 76.483,165.294 74.807 C 166.397 73.429,168.208 70.964,168.208 70.841 C 168.208 70.775,168.607 70.310,169.094 69.808 C 169.582 69.306,169.981 68.812,169.982 68.710 C 169.982 68.608,170.324 68.125,170.741 67.638 C 171.158 67.150,171.500 66.636,171.500 66.495 C 171.501 66.355,171.729 66.097,172.008 65.923 C 172.286 65.749,172.514 65.464,172.514 65.290 C 172.514 65.116,172.742 64.831,173.021 64.657 C 173.300 64.483,173.530 64.199,173.532 64.026 C 173.534 63.853,173.819 63.443,174.165 63.115 C 174.511 62.787,174.794 62.386,174.794 62.226 C 174.794 62.065,175.022 61.791,175.301 61.617 C 175.579 61.443,175.807 61.158,175.807 60.983 C 175.807 60.809,176.035 60.524,176.314 60.350 C 176.593 60.176,176.821 59.902,176.821 59.740 C 176.821 59.579,176.986 59.267,177.189 59.046 C 178.352 57.778,178.584 57.489,178.863 56.954 C 179.175 56.357,179.530 55.919,180.557 54.865 C 181.390 54.010,181.219 53.501,179.479 51.657 C 179.271 51.436,179.101 51.124,179.101 50.963 C 179.101 50.801,178.873 50.527,178.594 50.353 C 178.315 50.179,178.087 49.899,178.087 49.732 C 178.087 49.564,177.888 49.278,177.644 49.096 C 177.400 48.914,177.051 48.474,176.867 48.117 C 176.684 47.761,176.143 47.042,175.664 46.520 C 175.186 45.998,174.794 45.464,174.794 45.333 C 174.794 45.203,174.566 44.954,174.288 44.780 C 174.009 44.606,173.781 44.370,173.781 44.256 C 173.781 44.045,171.758 41.251,170.851 40.209 C 170.702 40.038,170.362 39.557,170.095 39.139 C 169.828 38.721,169.408 38.230,169.162 38.048 C 168.916 37.866,168.714 37.609,168.714 37.478 C 168.714 37.346,168.515 37.022,168.271 36.758 C 168.027 36.493,167.543 35.855,167.194 35.340 C 166.846 34.825,166.362 34.218,166.118 33.991 C 165.874 33.765,165.674 33.438,165.674 33.265 C 165.674 33.092,165.446 32.828,165.168 32.679 C 164.889 32.530,164.661 32.247,164.661 32.051 C 164.661 31.855,164.451 31.545,164.195 31.363 C 163.938 31.181,163.582 30.758,163.404 30.422 C 163.226 30.086,162.792 29.545,162.440 29.219 L 161.801 28.626 143.535 28.630 C 133.164 28.632,125.114 28.732,124.909 28.861 " stroke="none" fill="#f4841c" fill-rule="evenodd"></path><path id="path2" d="" stroke="none" fill="#5064a0" fill-rule="evenodd"></path><path id="path3" d="" stroke="none" fill="#5064a0" fill-rule="evenodd"></path><path id="path4" d="" stroke="none" fill="#5064a0" fill-rule="evenodd"></path></g></svg>