<svg width="109" height="362" viewBox="0 0 109 362" fill="none" xmlns="http://www.w3.org/2000/svg">
<path d="M98.1514 2C29.6514 55.1667 -69.7486 196 80.6514 334" stroke="#274287" stroke-width="4" stroke-dasharray="20 20"/>
<path d="M96.6486 346.381C96.7142 347.76 95.6495 348.931 94.2703 348.997L71.7958 350.067C70.4166 350.133 69.2454 349.068 69.1797 347.689C69.114 346.31 70.1788 345.139 71.558 345.073L91.5353 344.122L90.584 324.144C90.5183 322.765 91.5831 321.594 92.9623 321.528C94.3414 321.463 95.5127 322.527 95.5784 323.907L96.6486 346.381ZM73.8331 324.65L95.8331 344.65L92.4697 348.35L70.4697 328.35L73.8331 324.65Z" fill="#274287"/>
</svg>
