<svg width="44" height="44" viewBox="0 0 44 44" fill="none" xmlns="http://www.w3.org/2000/svg">
<g clip-path="url(#clip0)">
<path d="M24.4444 7.33336C25.0927 7.33336 25.7145 7.5909 26.1729 8.04932C26.6313 8.50774 26.8889 9.1295 26.8889 9.7778V29.3334C26.8889 29.9817 26.6313 30.6034 26.1729 31.0618C25.7145 31.5203 25.0927 31.7778 24.4444 31.7778H14.6667C14.0184 31.7778 13.3966 31.5203 12.9382 31.0618C12.4798 30.6034 12.2222 29.9817 12.2222 29.3334V9.7778C12.2222 9.1295 12.4798 8.50774 12.9382 8.04932C13.3966 7.5909 14.0184 7.33336 14.6667 7.33336H24.4444ZM14.6667 4.88892C13.37 4.88892 12.1265 5.40399 11.2097 6.32084C10.2928 7.23768 9.77777 8.48119 9.77777 9.7778V29.3334C9.77777 30.63 10.2928 31.8735 11.2097 32.7903C12.1265 33.7072 13.37 34.2222 14.6667 34.2222H24.4444C25.7411 34.2222 26.9846 33.7072 27.9014 32.7903C28.8182 31.8735 29.3333 30.63 29.3333 29.3334V9.7778C29.3333 8.48119 28.8182 7.23768 27.9014 6.32084C26.9846 5.40399 25.7411 4.88892 24.4444 4.88892H14.6667Z" fill="white"/>
<path d="M19.5556 29.3334C20.2039 29.3334 20.8256 29.0758 21.2841 28.6174C21.7425 28.159 22 27.5372 22 26.8889C22 26.2406 21.7425 25.6189 21.2841 25.1604C20.8256 24.702 20.2039 24.4445 19.5556 24.4445C18.9073 24.4445 18.2855 24.702 17.8271 25.1604C17.3687 25.6189 17.1111 26.2406 17.1111 26.8889C17.1111 27.5372 17.3687 28.159 17.8271 28.6174C18.2855 29.0758 18.9073 29.3334 19.5556 29.3334ZM3.90869 9.91958C4.0506 9.99467 4.17633 10.097 4.27869 10.2207C4.38105 10.3444 4.45804 10.487 4.50526 10.6405C4.55247 10.7939 4.56899 10.9552 4.55387 11.115C4.53875 11.2749 4.49229 11.4301 4.41713 11.572C3.11729 14.0321 2.43998 16.7732 2.44446 19.5556C2.44446 22.44 3.15824 25.1582 4.41713 27.5391C4.56884 27.8257 4.60049 28.1608 4.50514 28.4707C4.40979 28.7806 4.19524 29.0399 3.90869 29.1916C3.62213 29.3433 3.28706 29.3749 2.97716 29.2796C2.66727 29.1842 2.40795 28.9697 2.25624 28.6831C0.770078 25.8705 -0.00456512 22.7367 2.02386e-05 19.5556C2.02386e-05 16.2629 0.816465 13.1536 2.25624 10.428C2.33133 10.2861 2.43364 10.1604 2.55733 10.058C2.68103 9.95566 2.82367 9.87867 2.97713 9.83145C3.13058 9.78424 3.29183 9.76772 3.45167 9.78284C3.61151 9.79796 3.76681 9.84442 3.90869 9.91958ZM35.2025 9.91958C35.3443 9.84442 35.4996 9.79796 35.6595 9.78284C35.8193 9.76772 35.9806 9.78424 36.134 9.83145C36.2875 9.87867 36.4301 9.95566 36.5538 10.058C36.6775 10.1604 36.7798 10.2861 36.8549 10.428C38.3412 13.2406 39.1158 16.3745 39.1111 19.5556C39.1158 22.7367 38.3412 25.8706 36.8549 28.6831C36.7032 28.9697 36.4439 29.1842 36.134 29.2796C35.8241 29.3749 35.489 29.3433 35.2025 29.1916C34.9159 29.0399 34.7014 28.7806 34.606 28.4707C34.5107 28.1608 34.5423 27.8257 34.694 27.5391C35.9939 25.079 36.6712 22.338 36.6667 19.5556C36.6667 16.6711 35.9529 13.9529 34.694 11.572C34.6189 11.4301 34.5724 11.2749 34.5573 11.115C34.5422 10.9552 34.5587 10.7939 34.6059 10.6405C34.6531 10.487 34.7301 10.3444 34.8325 10.2207C34.9348 10.097 35.0606 9.99467 35.2025 9.91958ZM7.47269 13.5276C7.62233 13.5859 7.75901 13.6732 7.87491 13.7844C7.9908 13.8956 8.08364 14.0286 8.14812 14.1757C8.21259 14.3228 8.24744 14.4812 8.25066 14.6418C8.25389 14.8023 8.22543 14.962 8.16691 15.1116C7.61431 16.528 7.3316 18.0352 7.33335 19.5556C7.33335 21.1249 7.62669 22.6234 8.16446 23.9996C8.23268 24.1506 8.26945 24.314 8.27254 24.4797C8.27563 24.6455 8.24498 24.8101 8.18245 24.9636C8.11993 25.1171 8.02683 25.2563 7.90882 25.3727C7.79081 25.4891 7.65035 25.5803 7.496 25.6407C7.34164 25.7011 7.17661 25.7295 7.01095 25.7241C6.84528 25.7188 6.68243 25.6797 6.53231 25.6095C6.38219 25.5392 6.24794 25.4391 6.13771 25.3153C6.02748 25.1915 5.94359 25.0466 5.89113 24.8894C5.22738 23.1895 4.88746 21.3804 4.88891 19.5556C4.88891 17.6758 5.24335 15.8767 5.89113 14.2218C6.00899 13.9202 6.24175 13.6776 6.53828 13.5475C6.83481 13.4173 7.17088 13.4102 7.47269 13.5276ZM31.6385 13.5276C31.788 13.4691 31.9477 13.4406 32.1083 13.4438C32.2689 13.4471 32.4272 13.4819 32.5744 13.5464C32.7215 13.6108 32.8544 13.7037 32.9656 13.8196C33.0768 13.9355 33.1641 14.0722 33.2225 14.2218C33.8678 15.8767 34.2222 17.6758 34.2222 19.5556C34.2222 21.4354 33.8678 23.2345 33.22 24.8894C33.0911 25.1749 32.8573 25.4001 32.5671 25.5183C32.2769 25.6365 31.9524 25.6387 31.6606 25.5245C31.3688 25.4103 31.132 25.1884 30.9992 24.9046C30.8663 24.6208 30.8475 24.2968 30.9467 23.9996C31.4845 22.6234 31.7778 21.1249 31.7778 19.5556C31.7778 17.9862 31.4845 16.4878 30.9467 15.1116C30.8284 14.8098 30.8348 14.4734 30.9645 14.1763C31.0943 13.8793 31.3367 13.6459 31.6385 13.5276Z" fill="white"/>
</g>
<defs>
<clipPath id="clip0">
<rect width="44" height="44" fill="white"/>
</clipPath>
</defs>
</svg>
