<svg width="110" height="363" viewBox="0 0 110 363" fill="none" xmlns="http://www.w3.org/2000/svg">
<path d="M11 2.5C79.5 55.6667 178.9 196.5 28.5 334.5" stroke="#274287" stroke-width="4" stroke-dasharray="20 20"/>
<path d="M12.5028 346.881C12.4372 348.26 13.5019 349.431 14.8811 349.497L37.3556 350.567C38.7348 350.633 39.906 349.568 39.9717 348.189C40.0374 346.81 38.9726 345.639 37.5934 345.573L17.6161 344.622L18.5674 324.644C18.6331 323.265 17.5683 322.094 16.1891 322.028C14.81 321.963 13.6387 323.027 13.573 324.407L12.5028 346.881ZM35.3183 325.15L13.3183 345.15L16.6817 348.85L38.6817 328.85L35.3183 325.15Z" fill="#274287"/>
</svg>
